<?xml version="1.0" encoding="utf-8"?>
<!-- Generator: Adobe Illustrator 19.1.0, SVG Export Plug-In . SVG Version: 6.00 Build 0)  -->
<svg version="1.1" id="Layer_1" xmlns="http://www.w3.org/2000/svg" xmlns:xlink="http://www.w3.org/1999/xlink" x="0px" y="0px"
	 viewBox="0 0 600 175" style="enable-background:new 0 0 600 175;" xml:space="preserve">
<style type="text/css">
	.st0{opacity:0.5;}
	.st1{fill:#FFFFFF;}
</style>
<g>
	<g class="st0">
		<path d="M112.7,20.3l-4.88-3.93c-2.23,1.09-5.41,3.42-7.97,9.34c-1.37,0.44-2.84,0.9-4.66,1.33c-13.38,3.16-33.84-1.17-56.97,4.29
			c-27.41,6.47-36.89,29.5-32.59,47.7c3.74,15.84,17.83,28.12,39.45,23.01c22.16-5.23,26.39-20.81,22.71-36.44
			c-0.5-2.14-1.22-4.23-1.94-6.32l-9.23,3.99c0.69,1.98,1.26,3.89,1.71,5.81c2.88,12.2,0.16,24.15-14.61,27.64
			c-14.67,3.46-24.54-6.3-27.47-18.72c-3.51-14.88,3.01-33.71,23.56-38.56c22.16-5.23,39.76-2.49,55.5-6.21l2.36-0.56
			c-1.98,8.83-2.7,22.56-0.04,43.86c6.31,51.63-5.54,62.23-17.32,65.01c-11.24,2.65-17.25-3.16-18.71-9.37
			c-1.21-5.14,0.67-10.56,5.38-11.67l-2.62-9.67c-10.36,2.56-14.63,13.17-12.44,22.49c2.33,9.85,11.98,18.19,29.43,14.08
			c17.13-4.04,33.83-20.42,27.09-73.41c-3.24-25.23-3.21-38.01-2.45-44.86C109.68,26.67,111.58,23.73,112.7,20.3z"/>
		<path d="M593.42,154.69c-6.33,6.75-14.16,9.55-24.42,6.25c-7.44-2.39-16.09-8.17-25.17-14.09c1.91-3.08,3.65-6.34,5.35-9.83
			c4.25-8.92,21.11-38.05,24.58-48.14l-7.86-2.52c-7.88,17.34-19.44,38.59-23.94,37.14c-0.94-0.3-1.93-1.2-0.95-4.23
			c1.35-4.19,3.87-8.81,6.9-14.3c6.92-12.57,11.81-20.59,11.81-20.59l-8.9-2.86c0,0-4.75,7.6-11.74,20.38
			c-0.17,0.31-0.34,0.63-0.5,0.94c-0.1-0.04-0.18-0.08-0.24-0.09c-7.8,11.07-12.96,15.78-15.3,15.19c-1.07-0.27-1.54-1.07-1.14-2.67
			c0.94-3.73,8.09-11.34,9.82-18.16c1.54-6.08-1.97-11.5-4.57-16.02c3.11-5.11,5.26-10.01,7.47-16.94l-7.4-4.37
			c-3.11,5.11-4.94,9.19-5.8,12.6c-0.95,3.73-0.82,6.83-0.35,9.44c-2.36,4.84-5.09,9.82-8.3,14.45c-0.08-0.03-0.16-0.06-0.21-0.07
			c-6.34,10.16-12.98,15.77-19.34,14.47c-4.96-1.01-5.74-6.56-4.42-13.03c0.11-0.54,0.22-1.08,0.33-1.62
			c13.14,0.54,21.71-8.48,23.27-16.14c1.01-4.96-0.89-9.39-6.28-10.49c-9.91-2.02-19.59,8.57-24.39,20.53
			c-0.08-0.03-0.16-0.05-0.22-0.06c-6.77,11.73-12.29,16.31-14.9,15.89c-3.04-0.48-1.16-8.09-3.73-13.63
			c9.11-3.34,16.33-12.99,17.47-20.16c0.69-4.35-0.78-7.7-5.23-8.41c-4.78-0.76-9.83,3-14.47,9.72l3.17-8.74
			c8.05-7.18,19.76-20.58,21.16-29.38c0.66-4.13-0.97-7.17-6.41-8.04c-3.26-0.52-7.39,0.94-10.2,5.28
			c-5.58,8.65-13.64,31.05-20.71,52.05c-0.05-0.01-0.12-0.03-0.16-0.04c-6.85,12.92-12.06,17.62-13.26,17.48
			c-0.55-0.06-0.78-0.87-0.59-2.51c0.09-0.76,0.19-1.64,0.56-2.81c2.81-10.63,6.29-22.18,11.29-36.32l-7.76-0.92l-1.93,5.98
			c-0.18-5.01-2.19-7.68-6.23-8.16c-10.38-1.23-21.49,20.49-23.32,35.89c-0.95,7.97,0.54,14.13,5.89,14.77
			c6.34,0.75,10.85-4.58,14.15-10.95c-0.05,0.44-0.1,0.87-0.14,1.2c-0.89,7.54,0.7,10.94,4.19,11.35c2.95,0.35,6.34-1.95,10.4-7.28
			c-0.43,1.52-0.8,3.09-1.06,4.67c-0.16,0.98-0.31,1.96-0.36,2.95l8.8,1.4c1.73-5.96,3.71-12.11,5.67-18.14l1.63,0.26
			c0.68,6.9-1.42,19.38,7.38,20.78c5.58,0.89,10.9-5.22,16-13.13c-1.05,8.89,1.51,16.65,9.92,18.36
			c10.53,2.15,18.19-7.9,26.43-20.86c0.11,0.05,0.18,0.09,0.18,0.09l7.13-10.22c0.61,2.54,0.94,5.23,0.13,8.43
			c-1.38,5.44-8.2,11.77-9.95,18.7c-1.21,4.8-0.11,8.48,4.91,9.75c5.49,1.39,10.23-2.6,14.93-8.47c-1.91,6.55-1.41,11.73,3.87,13.43
			c3.04,0.98,6.08-0.24,9.19-2.71l-2.76,5.35c-1.84,3.57-3.68,6.79-5.46,9.8c-6.94-4.31-14.11-8.23-21.13-10.48
			c-18.75-6.02-31.6,2.33-35.03,13.02c-2.99,9.32,1.38,20.54,15.51,25.08c17.39,5.58,32.3-1.99,44.18-18.86
			c8.9,6.09,17.95,12.12,26.43,14.84c12.78,4.1,22.95,1.94,32.05-5.19L593.42,154.69z M503.88,75.89c1.08,0.22,1.5,1.43,1.17,3.05
			c-0.81,3.99-5.89,10.7-14.78,13.04C493.38,83.29,499.46,74.99,503.88,75.89z M477.98,34.27c0.54,0.09,0.89,0.7,0.74,1.68
			c-0.04,0.22-0.2,0.53-0.25,0.85c-2.32,6.2-7.06,13.58-11.15,18.94C474.1,38.33,476.24,33.99,477.98,34.27z M431.76,72.35
			c-1.21,10.16-9.55,27.23-14.57,26.63c-1.64-0.19-2.02-2.57-1.62-5.95c1.18-9.94,9.03-28.5,13.62-27.96
			C431.59,65.36,432.24,68.31,431.76,72.35z M459.27,88.09c-0.93-0.48-2.07-1-3.37-1.21l1.08-3.28
			c6.4-10.12,10.57-13.24,13.18-12.83c0.22,0.03,0.33,0.05,0.54,0.09c0.94,0.37,1.13,1.29,0.96,2.38
			C471,77.38,464.67,84.94,459.27,88.09z M499.01,165.16c-9.53-3.06-12.41-11.38-10.08-18.6c2.62-8.17,11.91-14.78,25.73-10.34
			c6.07,1.95,12.83,6.09,19.77,10.74C523.24,163.47,512,169.33,499.01,165.16z"/>
		<path d="M290.84,74.35c-4.73,12.69-8.38,18.88-11.24,18.91c-0.99,0.01-2.21-0.53-2.23-3.72c-0.08-9.02,3.01-21.81,6.71-39
			l-9.33,0.01c-1.19,5.22-3.61,14.79-5.1,23.79c0,0,0,0,0,0c-4.48,12-10.25,18.42-15.52,18.57c-5.61,0.17-7.98-5.45-8.18-12.38
			c-0.31-10.45,4.25-23.66,9.97-23.83c1.54-0.04,2.25,1.48,2.31,3.79c0.1,3.3-1.19,8.18-3.28,11.99l7.15,3.53
			c2.06-4.79,3.33-10.22,3.19-14.95c-0.19-6.38-2.87-11.36-9.13-11.18c-10.06,0.3-16.69,12.82-18.46,25.59
			c-0.06,0-0.11-0.01-0.15-0.01c-4.19,12.88-7.5,19.22-10.35,19.37c-0.99,0.05-2.23-0.44-2.39-3.62
			c-0.46-9.01,2.07-21.92,5.04-39.25l-9.34,0.48c-0.96,5.27-2.99,14.73-4.1,24.06c-2.8,9.34-5.6,15.81-8.12,16.01
			c-0.77,0.06-1.17-0.79-1.34-3.1c-0.28-3.62,0.06-10.6,1.24-22.49c3.31-18.57,5.52-41.36,5.24-50.72l-8.67,0.67l-4.39,43.15
			c-1.15-4.88-3.64-7.11-7.7-6.8c-7.65,0.59-13.23,13.4-15.18,26.29c-0.07,0-0.13,0-0.18,0c-2.92,11.61-7.53,18.98-13.98,19.69
			c-5.03,0.56-7.47-4.49-8.19-11.05c-0.06-0.55-0.12-1.09-0.18-1.64c12.67-3.5,18.07-14.72,17.21-22.49
			c-0.56-5.03-3.72-8.66-9.19-8.06c-10.06,1.11-16.03,14.17-16.93,27.03c-0.07,0-0.13,0-0.17,0.01c-3.02,13.2-6.02,19.51-8.42,19.85
			c-1.09,0.15-1.83-0.41-2.07-2.04c-0.54-3.81,3.19-13.56,2.21-20.53c-0.88-6.21-6.18-9.9-10.29-13.1
			c0.94-5.91,1.08-11.26,0.49-18.51l-8.51-1.24c-0.94,5.91-1.09,10.37-0.6,13.86c0.54,3.81,1.83,6.63,3.25,8.87
			c-0.35,5.38-1,11.03-2.22,16.53l0.02,0.11c0.12,0.87,3.25,0.98,3.25,0.98l2.72-12.16c1.52,2.12,2.86,4.48,3.32,7.75
			c0.79,5.55-3.13,14-2.13,21.08c0.69,4.9,3.12,7.89,8.23,7.17c6.49-0.92,9.33-8.13,11.57-17.02c1.77,8.65,6.57,15.1,15.02,14.17
			c7.56-0.84,11.88-7.04,15.13-15.86c0,0.01,0,0.02,0,0.02c0.61,7.9,3.27,13.76,8.64,13.35c6.25-0.48,9.64-6.59,11.65-13.48
			c0.03,0.44,0.07,0.88,0.09,1.21c0.58,7.57,2.8,10.6,6.31,10.33c3.82-0.29,7.99-5.04,12.1-15.17c0.01,0.4,0.03,0.79,0.05,1.17
			c0.39,7.58,2.65,12.97,8.58,12.67c6.63-0.34,10.11-7.44,13.16-16.26c0.97,8.96,4.97,15.9,12.65,15.68
			c7.95-0.23,14.17-8.34,18.3-16.3c-0.02,0.73-0.04,1.45-0.03,2.14c0.06,7.59,2.12,13.07,8.06,13.02
			c9.02-0.08,12.56-12.87,17.56-25.45v-0.11C294,75.09,291.39,74.34,290.84,74.35z M162.86,62.85c1.09-0.12,1.87,0.9,2.05,2.54
			c0.45,4.04-2.33,11.99-10.08,16.94C155.14,73.11,158.38,63.35,162.86,62.85z M188.64,96.68c-1.54,0.12-2.37-2.13-2.63-5.53
			c-0.76-9.87,3.11-29.7,7.83-30.06c2.41-0.19,3.62,2.59,3.93,6.65C198.55,77.93,193.68,96.29,188.64,96.68z"/>
		<path d="M403.57,93.68c0.71-12.85-5.28-25.85-18.91-32.45c10.51-4.81,15.9-14.54,16.46-24.54c1.12-20.1-16.78-31.12-37.43-32.27
			c-33.39-1.86-50.05,20.46-51.19,40.89c-0.9,16.15,7.96,31.18,25.97,32.18c2.42,0.13,4.74-0.07,6.87-0.72l-1.23-9.54
			c-1.45,0.25-3,0.38-4.64,0.29c-12.41-0.69-18.53-11.61-17.85-23.69c0.92-16.58,14.42-35.45,41.11-33.96
			c15.05,0.84,29.29,10.22,28.34,27.35c-0.49,8.9-4.94,17.57-13.63,21.28c-2.83-0.71-5.99-1.21-9.39-1.51
			c3.11-16.35,6.17-25.77,9.35-33.41l-10.07-3.09c-3.45,8.62-6.64,22.33-10.64,42.71c-5.22,26.48-10.76,45.01-18.99,52.27
			c-3.09-1.82-6.88-3.01-10.62-3.23c-12.96-0.78-12.87,6.46-12.87,6.46c-0.04,0.91,0.07,1.83,0.36,2.69
			c1.27,3.73,4.3,5.65,9.43,5.82c4.76,0.16,9.31-2.49,13.31-4.82c4.94,2.37,12.49,5.21,25.34,5.92
			C388.01,129.72,402.55,111.91,403.57,93.68z M392.94,92.54c-0.88,15.82-11.54,31.31-30,30.28c-8.9-0.49-14.96-2.37-19.91-4.52
			c9.62-8.5,18.35-24.87,23.7-53.77c4.07,0.12,7.83-0.23,11.18-1.03C388.85,68.95,393.59,80.89,392.94,92.54z"/>
		<path d="M281.17,44.17c4.84-0.04,7.66-4.69,7.63-8.65c-0.03-3.08-1.59-5.71-5.22-5.68c-4.84,0.04-7.66,4.8-7.63,8.76
			C275.98,41.58,277.65,44.2,281.17,44.17z"/>
		<path d="M226.65,45.74c4.83-0.25,7.45-5.01,7.25-8.96c-0.16-3.08-1.83-5.63-5.46-5.45c-4.83,0.25-7.45,5.12-7.25,9.07
			C221.35,43.36,223.14,45.92,226.65,45.74z"/>
		<polygon points="402,157.33 408,157.33 408,171.33 402,171.33 402,174.33 431,174.33 431,168.33 428,168.33 428,171.33 
			411,171.33 411,165.33 425,165.33 425,162.33 411,162.33 411,157.33 428,157.33 428,160.33 431,160.33 431,154.33 402,154.33 		
			"/>
		<path d="M193.33,157.33H199v-3h-17v3h5.31l-8.24,14H173v3h15v-3h-5.56l1.59-3h12.58l1.57,3H193v3h14v-3h-5.44L193.33,157.33z
			 M185.6,165.33l4.72-8.45l4.7,8.45H185.6z"/>
		<polygon points="411.61,150.46 412.07,151.75 423.87,147.52 422.94,144.93 		"/>
		<polygon points="233,157.33 238,157.33 238,170.04 222.51,154.33 213,154.33 213,157.33 219,157.33 219,171.33 213,171.33 
			213,174.33 227,174.33 227,171.33 221,171.33 221,157.05 238.31,174.33 241,174.33 241,157.33 247,157.33 247,154.33 233,154.33 
					"/>
		<path d="M348.95,157.33H355v-3h-17v3h4.93l-8.24,14H329v3h14v-3h-4.93l1.59-3h12.58l1.57,3H349v3h14v-3h-5.81L348.95,157.33z
			 M341.23,165.33l4.73-8.45l4.7,8.45H341.23z"/>
		<path d="M322,155.97c-1-0.76-2.59-1.35-4.05-1.78c-1.46-0.43-3.05-0.65-4.68-0.65c-1.85,0-3.62,0.27-5.24,0.82
			c-1.63,0.55-3.06,1.31-4.28,2.27s-2.18,2.08-2.88,3.36s-1.06,2.65-1.06,4.1s0.35,2.83,1.05,4.12s1.66,2.41,2.88,3.38
			s2.64,1.72,4.27,2.27s3.37,0.82,5.22,0.82c1.19,0,2.34-0.12,3.44-0.35c1.11-0.23,2.15-0.56,3.12-0.99
			c0.97-0.42,1.86-0.94,2.67-1.54c0.81-0.6,1.51-1.27,2.11-2.01l-2.19-2.16c-0.41,0.61-0.93,1.18-1.55,1.71s-1.32,0.99-2.11,1.38
			c-0.78,0.39-1.64,0.69-2.56,0.92c-0.93,0.22-1.9,0.34-2.93,0.34c-1.46,0-2.81-0.22-4.06-0.65c-1.25-0.43-2.34-1.01-3.27-1.73
			c-0.93-0.72-1.65-1.56-2.17-2.51c-0.52-0.95-0.78-1.95-0.78-3s0.26-2.04,0.78-2.98c0.52-0.95,1.25-1.78,2.17-2.5
			c0.93-0.72,2.02-1.3,3.27-1.73c1.25-0.43,2.61-0.65,4.06-0.65c0.92,0,1.8,0.09,2.63,0.27c0.84,0.18,1.62,0.43,2.36,0.76
			s1.49,0.71,2.09,1.15c0.6,0.44,0.68,0.91,1.68,1.42v0.5h3v-6h-3V155.97z"/>
		<polygon points="368,157.33 374,157.33 374,171.33 368,171.33 368,174.33 383,174.33 383,171.33 377,171.33 377,165.33 
			391,165.33 391,162.33 377,162.33 377,157.33 394,157.33 394,160.33 397,160.33 397,154.33 368,154.33 		"/>
		<path d="M278.23,157.12c-1.02-0.89-2.21-1.54-3.58-2.06s-2.83-0.73-4.4-0.73H252v3h6v14h-6v3h18.25c1.57,0,3.03-0.42,4.4-0.95
			c1.37-0.52,2.56-1.31,3.58-2.2c1.02-0.89,1.82-1.98,2.42-3.17s0.89-2.5,0.89-3.87s-0.3-2.67-0.89-3.87
			C280.05,159.07,279.24,158.01,278.23,157.12z M277.9,166.87c-0.44,0.86-1.05,1.6-1.82,2.24c-0.77,0.64-1.67,1.22-2.7,1.59
			c-1.03,0.37-2.12,0.63-3.29,0.63H261v-14h9.09c1.17,0,2.27,0.04,3.29,0.41s1.93,0.8,2.7,1.44c0.77,0.64,1.38,1.36,1.82,2.22
			c0.44,0.86,0.66,1.76,0.66,2.74S278.34,166.01,277.9,166.87z"/>
	</g>
	<g>
		<g>
			<path class="st1" d="M110.7,18.3l-4.88-3.93c-2.23,1.09-5.41,3.42-7.97,9.34c-1.37,0.44-2.84,0.9-4.66,1.33
				c-13.38,3.16-33.84-1.17-56.97,4.29C8.81,35.79-0.67,58.83,3.63,77.03c3.74,15.84,17.83,28.12,39.45,23.01
				c22.16-5.23,26.39-20.81,22.71-36.44c-0.5-2.14-1.22-4.23-1.94-6.32l-9.23,3.99c0.69,1.98,1.26,3.89,1.71,5.81
				c2.88,12.2,0.16,24.15-14.61,27.64c-14.67,3.46-24.54-6.3-27.47-18.72c-3.51-14.88,3.01-33.71,23.56-38.56
				c22.16-5.23,39.76-2.49,55.5-6.21l2.36-0.56c-1.98,8.83-2.7,22.56-0.04,43.86c6.31,51.63-5.54,62.23-17.32,65.01
				c-11.24,2.65-17.25-3.16-18.71-9.37c-1.21-5.14,0.67-10.56,5.38-11.67l-2.62-9.67c-10.36,2.56-14.63,13.17-12.44,22.49
				c2.33,9.85,11.98,18.19,29.43,14.08c17.13-4.04,33.83-20.42,27.09-73.41c-3.24-25.23-3.21-38.01-2.45-44.86
				C107.68,24.67,109.58,21.73,110.7,18.3z"/>
			<path class="st1" d="M591.42,152.69c-6.33,6.75-14.16,9.55-24.42,6.25c-7.44-2.39-16.09-8.17-25.17-14.09
				c1.91-3.08,3.65-6.34,5.35-9.83c4.25-8.92,21.11-38.05,24.58-48.14l-7.86-2.52c-7.88,17.34-19.44,38.59-23.94,37.14
				c-0.94-0.3-1.93-1.2-0.95-4.23c1.35-4.19,3.87-8.81,6.9-14.3c6.92-12.57,11.81-20.59,11.81-20.59l-8.9-2.86
				c0,0-4.75,7.6-11.74,20.38c-0.17,0.31-0.34,0.63-0.5,0.94c-0.1-0.04-0.18-0.08-0.24-0.09c-7.8,11.07-12.96,15.78-15.3,15.19
				c-1.07-0.27-1.54-1.07-1.14-2.67c0.94-3.73,8.09-11.34,9.82-18.16c1.54-6.08-1.97-11.5-4.57-16.02
				c3.11-5.11,5.26-10.01,7.47-16.94l-7.4-4.37c-3.11,5.11-4.94,9.19-5.8,12.6c-0.95,3.73-0.82,6.83-0.35,9.44
				c-2.36,4.84-5.09,9.82-8.3,14.45c-0.08-0.03-0.16-0.06-0.21-0.07c-6.34,10.16-12.98,15.77-19.34,14.47
				c-4.96-1.01-5.74-6.56-4.42-13.03c0.11-0.54,0.22-1.08,0.33-1.62c13.14,0.54,21.71-8.48,23.27-16.14
				c1.01-4.96-0.89-9.39-6.28-10.49c-9.91-2.02-19.59,8.57-24.39,20.53c-0.08-0.03-0.16-0.05-0.22-0.06
				c-6.77,11.73-12.29,16.31-14.9,15.89c-3.04-0.48-1.16-8.09-3.73-13.63c9.11-3.34,16.33-12.99,17.47-20.16
				c0.69-4.35-0.78-7.7-5.23-8.41c-4.78-0.76-9.83,3-14.47,9.72l3.17-8.74c8.05-7.18,19.76-20.58,21.16-29.38
				c0.66-4.13-0.97-7.17-6.41-8.04c-3.26-0.52-7.39,0.94-10.2,5.28c-5.58,8.65-13.64,31.05-20.71,52.05
				c-0.05-0.01-0.12-0.03-0.16-0.04c-6.85,12.92-12.06,17.62-13.26,17.48c-0.55-0.06-0.78-0.87-0.59-2.51
				c0.09-0.76,0.19-1.64,0.56-2.81c2.81-10.63,6.29-22.18,11.29-36.32l-7.76-0.92l-1.93,5.98c-0.18-5.01-2.19-7.68-6.23-8.16
				c-10.38-1.23-21.49,20.49-23.32,35.89c-0.95,7.97,0.54,14.13,5.89,14.77c6.34,0.75,10.85-4.58,14.15-10.95
				c-0.05,0.44-0.1,0.87-0.14,1.2c-0.89,7.54,0.7,10.94,4.19,11.35c2.95,0.35,6.34-1.95,10.4-7.28c-0.43,1.52-0.8,3.09-1.06,4.67
				c-0.16,0.98-0.31,1.96-0.36,2.95l8.8,1.4c1.73-5.96,3.71-12.11,5.67-18.14l1.63,0.26c0.68,6.9-1.42,19.38,7.38,20.78
				c5.58,0.89,10.9-5.22,16-13.13c-1.05,8.89,1.51,16.65,9.92,18.36c10.53,2.15,18.19-7.9,26.43-20.86
				c0.11,0.05,0.18,0.09,0.18,0.09l7.13-10.22c0.61,2.54,0.94,5.23,0.13,8.43c-1.38,5.44-8.2,11.77-9.95,18.7
				c-1.21,4.8-0.11,8.48,4.91,9.75c5.49,1.39,10.23-2.6,14.93-8.47c-1.91,6.55-1.41,11.73,3.87,13.43c3.04,0.98,6.08-0.24,9.19-2.71
				l-2.76,5.35c-1.84,3.57-3.68,6.79-5.46,9.8c-6.94-4.31-14.11-8.23-21.13-10.48c-18.75-6.02-31.6,2.33-35.03,13.02
				c-2.99,9.32,1.38,20.54,15.51,25.08c17.39,5.58,32.3-1.99,44.18-18.86c8.9,6.09,17.95,12.12,26.43,14.84
				c12.78,4.1,22.95,1.94,32.05-5.19L591.42,152.69z M501.88,73.89c1.08,0.22,1.5,1.43,1.17,3.05c-0.81,3.99-5.89,10.7-14.78,13.04
				C491.38,81.29,497.46,72.99,501.88,73.89z M475.98,32.27c0.54,0.09,0.89,0.7,0.74,1.68c-0.04,0.22-0.2,0.53-0.25,0.85
				c-2.32,6.2-7.06,13.58-11.15,18.94C472.1,36.33,474.24,31.99,475.98,32.27z M429.76,70.35c-1.21,10.16-9.55,27.23-14.57,26.63
				c-1.64-0.19-2.02-2.57-1.62-5.95c1.18-9.94,9.03-28.5,13.62-27.96C429.59,63.36,430.24,66.31,429.76,70.35z M457.27,86.09
				c-0.93-0.48-2.07-1-3.37-1.21l1.08-3.28c6.4-10.12,10.57-13.24,13.18-12.83c0.22,0.03,0.33,0.05,0.54,0.09
				c0.94,0.37,1.13,1.29,0.96,2.38C469,75.38,462.67,82.94,457.27,86.09z M497.01,163.16c-9.53-3.06-12.41-11.38-10.08-18.6
				c2.62-8.17,11.91-14.78,25.73-10.34c6.07,1.95,12.83,6.09,19.77,10.74C521.24,161.47,510,167.33,497.01,163.16z"/>
			<path class="st1" d="M288.84,72.35c-4.73,12.69-8.38,18.88-11.24,18.91c-0.99,0.01-2.21-0.53-2.23-3.72
				c-0.08-9.02,3.01-21.81,6.71-39l-9.33,0.01c-1.19,5.22-3.61,14.79-5.1,23.79c0,0,0,0,0,0c-4.48,12-10.25,18.42-15.52,18.57
				c-5.61,0.17-7.98-5.45-8.18-12.38c-0.31-10.45,4.25-23.66,9.97-23.83c1.54-0.04,2.25,1.48,2.31,3.79
				c0.1,3.3-1.19,8.18-3.28,11.99l7.15,3.53c2.06-4.79,3.33-10.22,3.19-14.95c-0.19-6.38-2.87-11.36-9.13-11.18
				c-10.06,0.3-16.69,12.82-18.46,25.59c-0.06,0-0.11-0.01-0.15-0.01c-4.19,12.88-7.5,19.22-10.35,19.37
				c-0.99,0.05-2.23-0.44-2.39-3.62c-0.46-9.01,2.07-21.92,5.04-39.25l-9.34,0.48c-0.96,5.27-2.99,14.73-4.1,24.06
				c-2.8,9.34-5.6,15.81-8.12,16.01c-0.77,0.06-1.17-0.79-1.34-3.1c-0.28-3.62,0.06-10.6,1.24-22.49
				c3.31-18.57,5.52-41.36,5.24-50.72l-8.67,0.67l-4.39,43.15c-1.15-4.88-3.64-7.11-7.7-6.8c-7.65,0.59-13.23,13.4-15.18,26.29
				c-0.07,0-0.13,0-0.18,0c-2.92,11.61-7.53,18.98-13.98,19.69c-5.03,0.56-7.47-4.49-8.19-11.05c-0.06-0.55-0.12-1.09-0.18-1.64
				c12.67-3.5,18.07-14.72,17.21-22.49c-0.56-5.03-3.72-8.66-9.19-8.06c-10.06,1.11-16.03,14.17-16.93,27.03
				c-0.07,0-0.13,0-0.17,0.01c-3.02,13.2-6.02,19.51-8.42,19.85c-1.09,0.15-1.83-0.41-2.07-2.04c-0.54-3.81,3.19-13.56,2.21-20.53
				c-0.88-6.21-6.18-9.9-10.29-13.1c0.94-5.91,1.08-11.26,0.49-18.51l-8.51-1.24c-0.94,5.91-1.09,10.37-0.6,13.86
				c0.54,3.81,1.83,6.63,3.25,8.87c-0.35,5.38-1,11.03-2.22,16.53l0.02,0.11c0.12,0.87,3.25,0.98,3.25,0.98l2.72-12.16
				c1.52,2.12,2.86,4.48,3.32,7.75c0.79,5.55-3.13,14-2.13,21.08c0.69,4.9,3.12,7.89,8.23,7.17c6.49-0.92,9.33-8.13,11.57-17.02
				c1.77,8.65,6.57,15.1,15.02,14.17c7.56-0.84,11.88-7.04,15.13-15.86c0,0.01,0,0.02,0,0.02c0.61,7.9,3.27,13.76,8.64,13.35
				c6.25-0.48,9.64-6.59,11.65-13.48c0.03,0.44,0.07,0.88,0.09,1.21c0.58,7.57,2.8,10.6,6.31,10.33c3.82-0.29,7.99-5.04,12.1-15.17
				c0.01,0.4,0.03,0.79,0.05,1.17c0.39,7.58,2.65,12.97,8.58,12.67c6.63-0.34,10.11-7.44,13.16-16.26
				c0.97,8.96,4.97,15.9,12.65,15.68c7.95-0.23,14.17-8.34,18.3-16.3c-0.02,0.73-0.04,1.45-0.03,2.14
				c0.06,7.59,2.12,13.07,8.06,13.02C283.46,99.23,287,86.44,292,73.86v-0.11C292,73.09,289.39,72.34,288.84,72.35z M160.86,60.85
				c1.09-0.12,1.87,0.9,2.05,2.54c0.45,4.04-2.33,11.99-10.08,16.94C153.14,71.11,156.38,61.35,160.86,60.85z M186.64,94.68
				c-1.54,0.12-2.37-2.13-2.63-5.53c-0.76-9.87,3.11-29.7,7.83-30.06c2.41-0.19,3.62,2.59,3.93,6.65
				C196.55,75.93,191.68,94.29,186.64,94.68z"/>
			<path class="st1" d="M401.57,91.68c0.71-12.85-5.28-25.85-18.91-32.45c10.51-4.81,15.9-14.54,16.46-24.54
				c1.12-20.1-16.78-31.12-37.43-32.27c-33.39-1.86-50.05,20.46-51.19,40.89c-0.9,16.15,7.96,31.18,25.97,32.18
				c2.42,0.13,4.74-0.07,6.87-0.72l-1.23-9.54c-1.45,0.25-3,0.38-4.64,0.29c-12.41-0.69-18.53-11.61-17.85-23.69
				c0.92-16.58,14.42-35.45,41.11-33.96c15.05,0.84,29.29,10.22,28.34,27.35c-0.49,8.9-4.94,17.57-13.63,21.28
				c-2.83-0.71-5.99-1.21-9.39-1.51c3.11-16.35,6.17-25.77,9.35-33.41l-10.07-3.09c-3.45,8.62-6.64,22.33-10.64,42.71
				c-5.22,26.48-10.76,45.01-18.99,52.27c-3.09-1.82-6.88-3.01-10.62-3.23c-12.96-0.78-12.87,6.46-12.87,6.46
				c-0.04,0.91,0.07,1.83,0.36,2.69c1.27,3.73,4.3,5.65,9.43,5.82c4.76,0.16,9.31-2.49,13.31-4.82c4.94,2.37,12.49,5.21,25.34,5.92
				C386.01,127.72,400.55,109.91,401.57,91.68z M390.94,90.54c-0.88,15.82-11.54,31.31-30,30.28c-8.9-0.49-14.96-2.37-19.91-4.52
				c9.62-8.5,18.35-24.87,23.7-53.77c4.07,0.12,7.83-0.23,11.18-1.03C386.85,66.95,391.59,78.89,390.94,90.54z"/>
			<path class="st1" d="M279.17,42.17c4.84-0.04,7.66-4.69,7.63-8.65c-0.03-3.08-1.59-5.71-5.22-5.68c-4.84,0.04-7.66,4.8-7.63,8.76
				C273.98,39.58,275.65,42.2,279.17,42.17z"/>
			<path class="st1" d="M224.65,43.74c4.83-0.25,7.45-5.01,7.25-8.96c-0.16-3.08-1.83-5.63-5.46-5.45
				c-4.83,0.25-7.45,5.12-7.25,9.07C219.35,41.36,221.14,43.92,224.65,43.74z"/>
			<polygon class="st1" points="400,155.33 406,155.33 406,169.33 400,169.33 400,172.33 429,172.33 429,166.33 426,166.33 
				426,169.33 409,169.33 409,163.33 423,163.33 423,160.33 409,160.33 409,155.33 426,155.33 426,158.33 429,158.33 429,152.33 
				400,152.33 			"/>
			<path class="st1" d="M191.33,155.33H197v-3h-17v3h5.31l-8.24,14H171v3h15v-3h-5.56l1.59-3h12.58l1.57,3H191v3h14v-3h-5.44
				L191.33,155.33z M183.6,163.33l4.72-8.45l4.7,8.45H183.6z"/>
			<polygon class="st1" points="409.61,148.46 410.07,149.75 421.87,145.52 420.94,142.93 			"/>
			<polygon class="st1" points="231,155.33 236,155.33 236,168.04 220.51,152.33 211,152.33 211,155.33 217,155.33 217,169.33 
				211,169.33 211,172.33 225,172.33 225,169.33 219,169.33 219,155.05 236.31,172.33 239,172.33 239,155.33 245,155.33 245,152.33 
				231,152.33 			"/>
			<path class="st1" d="M346.95,155.33H353v-3h-17v3h4.93l-8.24,14H327v3h14v-3h-4.93l1.59-3h12.58l1.57,3H347v3h14v-3h-5.81
				L346.95,155.33z M339.23,163.33l4.73-8.45l4.7,8.45H339.23z"/>
			<path class="st1" d="M320,153.97c-1-0.76-2.59-1.35-4.05-1.78c-1.46-0.43-3.05-0.65-4.68-0.65c-1.85,0-3.62,0.27-5.24,0.82
				c-1.63,0.55-3.06,1.31-4.28,2.27s-2.18,2.08-2.88,3.36s-1.06,2.65-1.06,4.1s0.35,2.83,1.05,4.12s1.66,2.41,2.88,3.38
				s2.64,1.72,4.27,2.27s3.37,0.82,5.22,0.82c1.19,0,2.34-0.12,3.44-0.35c1.11-0.23,2.15-0.56,3.12-0.99
				c0.97-0.42,1.86-0.94,2.67-1.54c0.81-0.6,1.51-1.27,2.11-2.01l-2.19-2.16c-0.41,0.61-0.93,1.18-1.55,1.71s-1.32,0.99-2.11,1.38
				c-0.78,0.39-1.64,0.69-2.56,0.92c-0.93,0.22-1.9,0.34-2.93,0.34c-1.46,0-2.81-0.22-4.06-0.65c-1.25-0.43-2.34-1.01-3.27-1.73
				c-0.93-0.72-1.65-1.56-2.17-2.51c-0.52-0.95-0.78-1.95-0.78-3s0.26-2.04,0.78-2.98c0.52-0.95,1.25-1.78,2.17-2.5
				c0.93-0.72,2.02-1.3,3.27-1.73c1.25-0.43,2.61-0.65,4.06-0.65c0.92,0,1.8,0.09,2.63,0.27c0.84,0.18,1.62,0.43,2.36,0.76
				s1.49,0.71,2.09,1.15c0.6,0.44,0.68,0.91,1.68,1.42v0.5h3v-6h-3V153.97z"/>
			<polygon class="st1" points="366,155.33 372,155.33 372,169.33 366,169.33 366,172.33 381,172.33 381,169.33 375,169.33 
				375,163.33 389,163.33 389,160.33 375,160.33 375,155.33 392,155.33 392,158.33 395,158.33 395,152.33 366,152.33 			"/>
			<path class="st1" d="M276.23,155.12c-1.02-0.89-2.21-1.54-3.58-2.06s-2.83-0.73-4.4-0.73H250v3h6v14h-6v3h18.25
				c1.57,0,3.03-0.42,4.4-0.95c1.37-0.52,2.56-1.31,3.58-2.2c1.02-0.89,1.82-1.98,2.42-3.17s0.89-2.5,0.89-3.87s-0.3-2.67-0.89-3.87
				C278.05,157.07,277.24,156.01,276.23,155.12z M275.9,164.87c-0.44,0.86-1.05,1.6-1.82,2.24c-0.77,0.64-1.67,1.22-2.7,1.59
				c-1.03,0.37-2.12,0.63-3.29,0.63H259v-14h9.09c1.17,0,2.27,0.04,3.29,0.41s1.93,0.8,2.7,1.44c0.77,0.64,1.38,1.36,1.82,2.22
				c0.44,0.86,0.66,1.76,0.66,2.74S276.34,164.01,275.9,164.87z"/>
		</g>
	</g>
</g>
</svg>
